<?xml version="1.0" encoding="UTF-8"?>
<svg version="1.1" xmlns="http://www.w3.org/2000/svg" width="1280" height="1280">
<path d="M0 0 C3.5 0.125 3.5 0.125 4.5 1.125 C4.64801345 3.12432602 4.72790603 5.12872494 4.78125 7.1328125 C4.83671997 9.05504639 4.83671997 9.05504639 4.89331055 11.01611328 C4.92918165 12.42740106 4.96473649 13.83869691 5 15.25 C5.07793307 18.18754109 5.15804919 21.12502092 5.23828125 24.0625 C5.25832718 24.81532257 5.27837311 25.56814514 5.29902649 26.34378052 C5.43677399 31.35685236 5.62880737 36.36522866 5.85546875 41.375 C7.53275488 80.05949023 7.53275488 80.05949023 3.5 88.125 C2.84 88.125 2.18 88.125 1.5 88.125 C1.231875 89.259375 0.96375 90.39375 0.6875 91.5625 C0.295625 92.738125 -0.09625 93.91375 -0.5 95.125 C-1.985 95.62 -1.985 95.62 -3.5 96.125 C-3.78875 96.8675 -4.0775 97.61 -4.375 98.375 C-6.30673303 103.09701408 -10.28159014 106.36121423 -14.5 109.125 C-15.16 109.125 -15.82 109.125 -16.5 109.125 C-16.5 109.785 -16.5 110.445 -16.5 111.125 C-18.54104571 112.23031407 -20.58286536 113.33419907 -22.625 114.4375 C-23.76195312 115.05238281 -24.89890625 115.66726563 -26.0703125 116.30078125 C-28.29962454 117.4865315 -30.54533848 118.6421155 -32.80859375 119.76171875 C-35.46671013 121.001715 -35.46671013 121.001715 -37.4375 122.625 C-40.24468528 124.66658929 -43.30741715 125.78075459 -46.5 127.125 C-48.84582541 128.44828613 -51.10459759 129.87293096 -53.375 131.3203125 C-57.33381365 133.82456204 -61.2705582 136.09486794 -65.5 138.125 C-70.92257388 140.73875863 -76.19535497 143.49132304 -81.375 146.5625 C-85.35105862 148.91661144 -89.35005091 151.09336696 -93.5 153.125 C-97.60892039 155.13665894 -101.56617685 157.2892925 -105.5 159.625 C-110.30033934 162.47286971 -115.18409027 164.99304003 -120.19921875 167.4375 C-124.94799371 169.86527607 -129.55857252 172.52974515 -134.15722656 175.22998047 C-139.17658632 178.125 -139.17658632 178.125 -142.5 178.125 C-142.5 178.785 -142.5 179.445 -142.5 180.125 C-143.04269531 180.39054688 -143.58539062 180.65609375 -144.14453125 180.9296875 C-145.21767578 181.45949219 -145.21767578 181.45949219 -146.3125 182 C-147.37404297 182.52207031 -147.37404297 182.52207031 -148.45703125 183.0546875 C-150.71246418 184.1906486 -150.71246418 184.1906486 -153.5 186.125 C-154.82 186.125 -156.14 186.125 -157.5 186.125 C-157.5 186.785 -157.5 187.445 -157.5 188.125 C-158.22703125 188.47691406 -158.9540625 188.82882812 -159.703125 189.19140625 C-166.24676266 192.40450012 -172.56849886 195.83984829 -178.80859375 199.609375 C-181.5 201.125 -181.5 201.125 -183.91015625 202.078125 C-187.29348939 203.44574684 -190.36414793 205.27711766 -193.5 207.125 C-202.42931291 212.26836908 -211.40070729 217.28816667 -220.5 222.125 C-218.83324219 222.99511719 -218.83324219 222.99511719 -217.1328125 223.8828125 C-209.82662863 227.71420424 -202.55949726 231.5262886 -195.578125 235.93359375 C-193.28567282 237.24787555 -190.95321054 238.14517821 -188.5 239.125 C-186.42465579 240.20483178 -184.36295505 241.31112335 -182.3125 242.4375 C-178.34558875 244.59964532 -174.37365898 246.70832759 -170.3125 248.6875 C-166.93465006 250.35186871 -163.71300664 252.16121833 -160.5 254.125 C-155.63323913 257.09660477 -150.62690784 259.63672068 -145.5 262.125 C-143.33120188 263.18314243 -141.16456129 264.24571741 -139 265.3125 C-137.9996875 265.80105469 -136.999375 266.28960938 -135.96875 266.79296875 C-133.5 268.125 -133.5 268.125 -131.5 270.125 C-130.75 273.375 -130.75 273.375 -131.5 277.125 C-134.47471068 279.76622294 -137.94681708 281.37957681 -141.5 283.125 C-143.19769531 283.97578125 -143.19769531 283.97578125 -144.9296875 284.84375 C-147.31252079 286.03255961 -149.69927371 287.21354455 -152.08984375 288.38671875 C-155.9615114 290.36024922 -159.64571009 292.54126375 -163.31640625 294.86328125 C-165.64141625 296.20671279 -168.00776204 297.13555669 -170.5 298.125 C-171.180625 298.66125 -171.86125 299.1975 -172.5625 299.75 C-174.5 301.125 -174.5 301.125 -178.5 301.125 C-178.5 301.785 -178.5 302.445 -178.5 303.125 C-181.91831915 305.6643228 -184.25776898 306.4886198 -188.5 306.125 C-188.5 306.785 -188.5 307.445 -188.5 308.125 C-189.91328129 308.94337442 -191.33078346 309.75446219 -192.75 310.5625 C-193.53890625 311.01496094 -194.3278125 311.46742188 -195.140625 311.93359375 C-197.28833468 313.01811602 -199.15205061 313.65648716 -201.5 314.125 C-201.5 314.785 -201.5 315.445 -201.5 316.125 C-203.15 316.455 -204.8 316.785 -206.5 317.125 C-206.5 317.785 -206.5 318.445 -206.5 319.125 C-210.05825071 320.7516289 -212.59710918 321.53811936 -216.5 321.125 C-219.14905145 319.95270226 -221.64341778 318.73998524 -224.1875 317.375 C-229.59227251 314.56076103 -234.94068899 311.99566535 -240.6796875 309.9140625 C-242.5 309.125 -242.5 309.125 -244.5 307.125 C-245.428125 306.815625 -246.35625 306.50625 -247.3125 306.1875 C-250.5 305.125 -250.5 305.125 -252.75 303.75 C-256.78906271 301.36328112 -261.12630822 299.79804326 -265.5 298.125 C-265.5 297.465 -265.5 296.805 -265.5 296.125 C-266.45003906 296.06441406 -267.40007813 296.00382812 -268.37890625 295.94140625 C-273.59949424 295.19560797 -277.87831472 292.58305338 -282.4375 290.0625 C-283.31212891 289.59005859 -284.18675781 289.11761719 -285.08789062 288.63085938 C-287.23062992 287.47167254 -289.36754529 286.30296683 -291.5 285.125 C-291.5 284.465 -291.5 283.805 -291.5 283.125 C-292.20125 282.96 -292.9025 282.795 -293.625 282.625 C-297.85414988 280.41848702 -299.97603821 277.09902637 -302.5 273.125 C-303.10717865 272.33105583 -303.10717865 272.33105583 -303.72662354 271.52107239 C-308.89758627 263.88271146 -308.26368616 255.48822205 -308.234375 246.640625 C-308.24284055 244.93584591 -308.25248498 243.23107231 -308.26324463 241.52630615 C-308.27958258 237.96231695 -308.27697903 234.39894951 -308.26171875 230.83496094 C-308.24447455 226.30115592 -308.28152238 221.76967629 -308.33398056 217.23620987 C-308.36731071 213.71671762 -308.36762029 210.19777022 -308.35883331 206.67815399 C-308.35918971 205.00862579 -308.37026232 203.33905963 -308.39293671 201.66968536 C-308.52741244 190.25211374 -306.98155937 182.69004003 -300.5 173.125 C-299.84 172.135 -299.18 171.145 -298.5 170.125 C-297.84 170.125 -297.18 170.125 -296.5 170.125 C-296.4175 169.50625 -296.335 168.8875 -296.25 168.25 C-295.26374561 165.45561257 -294.06609601 165.408048 -291.5 164.125 C-290.69471111 162.07499129 -290.69471111 162.07499129 -290.5 160.125 C-289.18 159.795 -287.86 159.465 -286.5 159.125 C-286.5 158.465 -286.5 157.805 -286.5 157.125 C-284.52460696 155.73379331 -282.57332716 154.47918479 -280.5 153.25 C-279.90421143 152.89067383 -279.30842285 152.53134766 -278.69458008 152.16113281 C-274.38853968 149.58907233 -270.02858663 147.26961608 -265.5 145.125 C-263.38623805 144.03986018 -261.27390246 142.9521208 -259.1640625 141.859375 C-257.5 141.125 -257.5 141.125 -255.5 141.125 C-255.5 140.465 -255.5 139.805 -255.5 139.125 C-252.53 138.135 -249.56 137.145 -246.5 136.125 C-246.5 135.465 -246.5 134.805 -246.5 134.125 C-245.87351562 133.85945312 -245.24703125 133.59390625 -244.6015625 133.3203125 C-243.37566406 132.79050781 -243.37566406 132.79050781 -242.125 132.25 C-241.31289063 131.90195312 -240.50078125 131.55390625 -239.6640625 131.1953125 C-237.36197701 130.20053933 -237.36197701 130.20053933 -235.5 128.125 C-232.875 128 -232.875 128 -230.5 128.125 C-230.5 127.465 -230.5 126.805 -230.5 126.125 C-228.25583701 124.78090238 -226.00557204 123.44970104 -223.75 122.125 C-222.79867187 121.55265625 -222.79867187 121.55265625 -221.828125 120.96875 C-218.36028524 118.94584348 -216.60651746 118.125 -212.5 118.125 C-212.5 117.465 -212.5 116.805 -212.5 116.125 C-211.57380859 115.67060547 -211.57380859 115.67060547 -210.62890625 115.20703125 C-202.03935305 110.9580133 -193.77250037 106.37132166 -185.6640625 101.26171875 C-183.5 100.125 -183.5 100.125 -180.5 100.125 C-180.5 99.465 -180.5 98.805 -180.5 98.125 C-179.57380859 97.67060547 -179.57380859 97.67060547 -178.62890625 97.20703125 C-173.56659088 94.70284176 -168.59306932 92.09775052 -163.67578125 89.3203125 C-161.49982322 88.12490288 -159.29478395 87.02347598 -157.0625 85.9375 C-153.55090663 84.38229733 -153.55090663 84.38229733 -151.5 82.125 C-150.71625 81.815625 -149.9325 81.50625 -149.125 81.1875 C-146.46819544 80.26148526 -146.46819544 80.26148526 -144.5 78.5 C-142.01246105 76.78981697 -140.45602718 76.8786644 -137.5 77.125 C-137.17 76.135 -136.84 75.145 -136.5 74.125 C-133.27208445 71.9730563 -132.21599191 71.92413557 -128.5 72.125 C-128.17 71.135 -127.84 70.145 -127.5 69.125 C-126.51 69.125 -125.52 69.125 -124.5 69.125 C-124.5 68.465 -124.5 67.805 -124.5 67.125 C-123.860625 66.898125 -123.22125 66.67125 -122.5625 66.4375 C-118.36364234 64.63798958 -114.4694155 62.37843653 -110.5 60.125 C-94.53313253 51.125 -94.53313253 51.125 -91.5 51.125 C-91.5 50.465 -91.5 49.805 -91.5 49.125 C-90.80261719 48.86203125 -90.10523438 48.5990625 -89.38671875 48.328125 C-80.81983111 44.75762244 -69.13865802 39.76365802 -62.5 33.125 C-60.83382885 33.08436168 -59.16611905 33.082279 -57.5 33.125 C-57.5 32.465 -57.5 31.805 -57.5 31.125 C-54.28029928 28.16287534 -50.48196833 26.82102355 -46.5 25.125 C-45.84 24.465 -45.18 23.805 -44.5 23.125 C-42.16666667 22.125 -39.83333333 21.125 -37.5 20.125 C-36.84 19.465 -36.18 18.805 -35.5 18.125 C-34.71625 17.815625 -33.9325 17.50625 -33.125 17.1875 C-30.49135585 16.25185745 -30.49135585 16.25185745 -28.5 14.625 C-26.26042005 12.94531504 -24.10145634 12.14020247 -21.5 11.125 C-20.63375 10.58875 -19.7675 10.0525 -18.875 9.5 C-16.5 8.125 -16.5 8.125 -13.5 8.125 C-13.5 7.465 -13.5 6.805 -13.5 6.125 C-12.86191406 5.77566406 -12.22382812 5.42632812 -11.56640625 5.06640625 C-10.74011719 4.61136719 -9.91382813 4.15632813 -9.0625 3.6875 C-8.23878906 3.23503906 -7.41507813 2.78257812 -6.56640625 2.31640625 C-2.71707652 0.09703845 -2.71707652 0.09703845 0 0 Z " fill="#2361EA" transform="translate(797.5,346.875)"/>
<path d="M0 0 C2.04563599 1.26220093 4.04402816 2.60287726 6 4 C7.65850911 4.73357134 9.31854793 5.46519459 11 6.14453125 C14.33509118 7.57106439 17.53859642 9.2604609 20.765625 10.9140625 C23.081226 12.09945002 23.081226 12.09945002 26 13 C26 13.66 26 14.32 26 15 C27.98 15.33 29.96 15.66 32 16 C32 16.66 32 17.32 32 18 C33.0828125 18.185625 33.0828125 18.185625 34.1875 18.375 C36.95721894 18.9904931 39.3970354 19.88444374 42 21 C42 21.66 42 22.32 42 23 C42.70125 22.938125 43.4025 22.87625 44.125 22.8125 C47.65260212 23.04256101 49.93984351 24.29200568 53 26 C53 26.66 53 27.32 53 28 C53.9075 28.12375 54.815 28.2475 55.75 28.375 C58.58970323 28.92109677 60.52590591 29.57263803 63 31 C63 31.66 63 32.32 63 33 C63.66 33.061875 64.32 33.12375 65 33.1875 C69.1216675 34.30378495 72.65750502 36.33761566 76 39 C76 39.66 76 40.32 76 41 C76.99 41.33 77.98 41.66 79 42 C87.85487452 51.48736556 85.10121358 66.32737848 84.9140625 78.5078125 C84.89224288 80.16738415 84.87079568 81.82696073 84.84970093 83.48654175 C84.80455119 86.93738001 84.75535849 90.38812907 84.703125 93.83886719 C84.63638115 98.26620932 84.57930323 102.69361486 84.52509499 107.12112617 C84.48235579 110.53542372 84.43491785 113.94964318 84.38599777 117.36385727 C84.36309324 118.99776206 84.34158463 120.63168703 84.32149124 122.26562881 C84.29279646 124.53672309 84.25786279 126.80763571 84.22119141 129.07861328 C84.20263092 130.37034454 84.18407043 131.66207581 84.16494751 132.99295044 C84 136 84 136 83 138 C82.34 138 81.68 138 81 138 C80.896875 138.556875 80.79375 139.11375 80.6875 139.6875 C79.85821592 142.4769101 78.65700944 144.6139064 77 147 C76.34 147 75.68 147 75 147 C74.814375 147.70125 74.62875 148.4025 74.4375 149.125 C72.42784462 153.14431077 69.51671829 155.29155971 66 158 C65.38125 158.49242187 64.7625 158.98484375 64.125 159.4921875 C60.7450345 162.07086808 59.36798425 163 55 163 C55 163.66 55 164.32 55 165 C54.24074219 165.40992188 53.48148438 165.81984375 52.69921875 166.2421875 C51.70535156 166.78101563 50.71148438 167.31984375 49.6875 167.875 C48.70136719 168.40867187 47.71523438 168.94234375 46.69921875 169.4921875 C43.90413542 171.00722126 43.90413542 171.00722126 41 173 C39.68 173 38.36 173 37 173 C37 173.66 37 174.32 37 175 C34.94178919 176.15416506 32.87900528 177.29835847 30.8125 178.4375 C29.08966797 179.39462891 29.08966797 179.39462891 27.33203125 180.37109375 C24.43449743 181.78759035 22.16805872 182.57639893 19 183 C19 183.66 19 184.32 19 185 C15.81940597 187.18097876 12.56197031 188.57521188 9 190 C8.13375 190.53625 7.2675 191.0725 6.375 191.625 C4 193 4 193 1 193 C1 193.66 1 194.32 1 195 C0.39414062 195.29132813 -0.21171875 195.58265625 -0.8359375 195.8828125 C-6.23542658 198.5244087 -11.40790693 201.38634185 -16.54296875 204.5078125 C-18.97544787 205.98508917 -21.41249504 207.44827863 -23.875 208.875 C-24.57367187 209.28492188 -25.27234375 209.69484375 -25.9921875 210.1171875 C-28 211 -28 211 -32 211 C-32.33 211.99 -32.66 212.98 -33 214 C-34.87306511 215.00342774 -36.75492425 215.99423876 -38.6796875 216.89453125 C-41.05547949 218.02643215 -43.33351365 219.26916957 -45.625 220.5625 C-48.1666542 221.99300073 -50.69133832 223.3391471 -53.3125 224.625 C-56.00599367 225.88369246 -56.00599367 225.88369246 -58.0625 227.6875 C-60.50754255 229.34381914 -62.1075375 229.24103854 -65 229 C-65.33 229.99 -65.66 230.98 -66 232 C-67.70703125 233.0625 -67.70703125 233.0625 -69.8125 234 C-72.23711053 235.12170594 -74.08831846 236.07065477 -76.1875 237.75 C-78.54923007 239.37877936 -80.19471697 239.23377359 -83 239 C-83.33 239.99 -83.66 240.98 -84 242 C-86.1953125 243.2890625 -86.1953125 243.2890625 -89.125 244.625 C-94.98779486 247.4087731 -100.45531534 250.60881476 -105.92236328 254.10400391 C-109.33128123 256.22695014 -110.87059122 257 -115 257 C-115 257.66 -115 258.32 -115 259 C-115.51949219 259.25394531 -116.03898438 259.50789063 -116.57421875 259.76953125 C-119.60820898 261.26689796 -122.59741615 262.75844969 -125.5 264.5 C-127.65704231 265.79422539 -129.80324292 266.90157667 -132.0625 268 C-134.26305328 269.07974909 -136.10255907 270.07769626 -138.0625 271.5625 C-139.93342329 272.95060437 -141.54201837 273.69388396 -143.6875 274.5625 C-147.07272892 275.61006978 -147.07272892 275.61006978 -148 278 C-149.84765625 278.6328125 -149.84765625 278.6328125 -152.0625 279.125 C-152.79597656 279.29257812 -153.52945313 279.46015625 -154.28515625 279.6328125 C-154.85105469 279.75398438 -155.41695312 279.87515625 -156 280 C-156 280.66 -156 281.32 -156 282 C-157.55851755 282.82011312 -159.12201716 283.63076213 -160.6875 284.4375 C-161.55761719 284.88996094 -162.42773438 285.34242188 -163.32421875 285.80859375 C-165.90998264 286.95991928 -168.21356528 287.56320753 -171 288 C-171 288.66 -171 289.32 -171 290 C-173.33645188 291.60213843 -175.60882331 292.84787573 -178.25 293.875 C-182.36444937 295.55818383 -186.13611722 297.81194199 -190 300 C-191.4787817 300.81320044 -192.95794441 301.62570844 -194.4375 302.4375 C-197.73251168 304.26358165 -200.96618439 306.17195685 -204.1875 308.125 C-215.10186143 314.67024302 -215.10186143 314.67024302 -221 314 C-223.79643544 311.20356456 -223.30283526 308.59082767 -223.30639648 304.84741211 C-223.31472 304.11055176 -223.32304352 303.37369141 -223.33161926 302.61450195 C-223.35578845 300.16872925 -223.36450285 297.72322338 -223.37109375 295.27734375 C-223.38006006 293.57540303 -223.38918191 291.87346313 -223.39845276 290.17152405 C-223.4149677 286.5961821 -223.42264649 283.02093401 -223.42553711 279.44555664 C-223.430901 274.88139552 -223.46848656 270.31812792 -223.51428127 265.7542181 C-223.5441564 262.23412435 -223.55126304 258.71424213 -223.55226326 255.19403267 C-223.55645059 253.5128225 -223.56882481 251.83161082 -223.58978081 250.15052605 C-223.69428724 241.03557347 -223.69996637 233.58789107 -218 226 C-217.46375 225.01 -216.9275 224.02 -216.375 223 C-215 221 -215 221 -212 220 C-211.85691406 219.40574219 -211.71382813 218.81148437 -211.56640625 218.19921875 C-210.01737554 212.1847064 -202.50934925 207.83391536 -197.4453125 204.765625 C-193.35514194 202.40077418 -189.18235321 200.19629457 -185 198 C-183.31875039 197.10595756 -181.63776878 196.211411 -179.95703125 195.31640625 C-168.43168469 189.20183495 -168.43168469 189.20183495 -162.609375 186.32421875 C-159.92721915 185.03650298 -159.92721915 185.03650298 -157.375 183.1875 C-154.40047868 181.13366385 -151.24337834 179.5896558 -148 178 C-144.84388287 176.45288376 -141.92707492 174.95138328 -139 173 C-135.11936374 170.41290916 -130.99588823 168.48818051 -126.8125 166.4375 C-123.90293016 165.01852216 -123.90293016 165.01852216 -121 163 C-118.14616804 161.09744536 -115.3266977 159.63211334 -112.25 158.125 C-107.46595437 155.77732866 -102.90748559 153.22260298 -98.3671875 150.4375 C-93.92500004 147.73993401 -89.34638476 145.2851224 -84.7890625 142.7890625 C-80.86623154 140.62806439 -77.00542654 138.40448688 -73.1875 136.0625 C-69.51971562 133.83563091 -65.79642399 131.87559377 -61.9375 130 C-57.37010962 127.76601392 -53.24076499 125.25322191 -49.06640625 122.36328125 C-46.55413194 120.70584508 -43.95548945 119.42798895 -41.2421875 118.13671875 C-37.32655651 116.15161663 -33.59460364 113.84446719 -29.83203125 111.5859375 C-27 110 -27 110 -24.54296875 109.03515625 C-21.28887325 107.71052444 -18.47478799 105.92869293 -15.5 104.0625 C-13.33333333 102.70833333 -11.16666667 101.35416667 -9 100 C-8.1028125 99.42121094 -7.205625 98.84242188 -6.28125 98.24609375 C-4 97 -4 97 -1 97 C-1 96.34 -1 95.68 -1 95 C1.31 93.68 3.62 92.36 6 91 C5.41621582 90.69819824 4.83243164 90.39639648 4.23095703 90.08544922 C1.52723999 88.68528144 -1.17387754 87.28016613 -3.875 85.875 C-4.7928125 85.400625 -5.710625 84.92625 -6.65625 84.4375 C-12.17627324 81.56086817 -17.55246018 78.53462774 -22.84960938 75.26464844 C-25.78316769 73.53941773 -28.85165331 72.28265976 -32 71 C-34.68589941 69.70221144 -37.34108737 68.35278011 -40 67 C-40 66.34 -40 65.68 -40 65 C-40.60328125 64.81824219 -41.2065625 64.63648438 -41.828125 64.44921875 C-46.14044629 63.09292415 -49.45833591 61.85618072 -53 59 C-54.23918959 58.35383116 -55.49088241 57.73142221 -56.75 57.125 C-60.38937042 55.35614399 -63.78660046 53.35761745 -67.16796875 51.13671875 C-69.12857022 49.8526255 -69.12857022 49.8526255 -72 48.75 C-74 47 -74 47 -74.1953125 44.86035156 C-74.17210937 44.0453418 -74.14890625 43.23033203 -74.125 42.390625 C-74.10695313 41.57110352 -74.08890625 40.75158203 -74.0703125 39.90722656 C-74.04710937 39.2778418 -74.02390625 38.64845703 -74 38 C-72.96101562 37.41992188 -71.92203125 36.83984375 -70.8515625 36.2421875 C-69.44255725 35.45339481 -68.03371394 34.66431282 -66.625 33.875 C-65.89708252 33.46773682 -65.16916504 33.06047363 -64.41918945 32.64086914 C-59.50614409 29.88044394 -54.67600504 27.0179791 -49.91796875 23.99609375 C-48 23 -48 23 -45 23 C-45 22.34 -45 21.68 -45 21 C-40.77417738 18.61319278 -36.55681006 16.24066593 -32.1875 14.125 C-27.52299533 11.85375225 -23.14732686 9.11156423 -18.734375 6.390625 C-16 5 -16 5 -12 5 C-12 4.34 -12 3.68 -12 3 C-7.80590318 0.60337325 -4.8458087 -0.70668044 0 0 Z " fill="#2361EA" transform="translate(713,524)"/>
<path d="M0 0 C0.33 1.32 0.66 2.64 1 4 C0.40832031 4.21914063 -0.18335938 4.43828125 -0.79296875 4.6640625 C-6.49584537 6.95265573 -9.320072 9.12950705 -13 14 C-13.99 14.33 -14.98 14.66 -16 15 C-16.33 15.66 -16.66 16.32 -17 17 C-17.66 17 -18.32 17 -19 17 C-15.65665151 9.09913962 -7.14375443 4.15636621 0 0 Z " fill="#0F3DEF" transform="translate(520,726)"/>
<path d="M0 0 C0.33 0.99 0.66 1.98 1 3 C-1.2386565 5.2386565 -3.06570533 5.8996395 -6 7 C-6.99 7.495 -6.99 7.495 -8 8 C-8.66 7.67 -9.32 7.34 -10 7 C-10.33 7.99 -10.66 8.98 -11 10 C-12.32 9.67 -13.64 9.34 -15 9 C-10.17342499 5.658525 -5.1588796 2.79725916 0 0 Z " fill="#0D3FED" transform="translate(613,675)"/>
<path d="M0 0 C4.54394294 0.53458152 7.29512312 2.39870347 11 5 C12.3191582 5.69429379 13.64649406 6.37530495 15 7 C13 8 13 8 11.08984375 7.51171875 C10.02443359 7.10373047 10.02443359 7.10373047 8.9375 6.6875 C8.22464844 6.42324219 7.51179687 6.15898438 6.77734375 5.88671875 C5 5 5 5 4 3 C1.97536745 2.34786708 1.97536745 2.34786708 0 2 C0 1.34 0 0.68 0 0 Z " fill="#0632D1" transform="translate(624,595)"/>
<path d="M0 0 C0.66 0.33 1.32 0.66 2 1 C-2.18461538 5.92307692 -2.18461538 5.92307692 -6.3125 6.3125 C-7.199375 6.209375 -8.08625 6.10625 -9 6 C-9.33 6.66 -9.66 7.32 -10 8 C-10 7.01 -10 6.02 -10 5 C-9.278125 4.731875 -8.55625 4.46375 -7.8125 4.1875 C-4.94366924 3.06484842 -4.94366924 3.06484842 -2.3125 1.3125 C-1.1678125 0.6628125 -1.1678125 0.6628125 0 0 Z " fill="#0936DA" transform="translate(683,409)"/>
<path d="M0 0 C0.33 1.32 0.66 2.64 1 4 C-0.45381897 4.69699552 -1.91322953 5.38233866 -3.375 6.0625 C-4.18710937 6.44535156 -4.99921875 6.82820312 -5.8359375 7.22265625 C-6.55007813 7.47917969 -7.26421875 7.73570312 -8 8 C-8.66 7.67 -9.32 7.34 -10 7 C-6.80331012 4.3513141 -3.60513403 2.06007659 0 0 Z " fill="#0B33F9" transform="translate(520,726)"/>
<path d="M0 0 C0.66 0.99 1.32 1.98 2 3 C0.35 3 -1.3 3 -3 3 C-3.66 4.32 -4.32 5.64 -5 7 C-5.99 7 -6.98 7 -8 7 C-6.5361389 2.60841671 -4.02168662 2.12052567 0 0 Z " fill="#0C3BCD" transform="translate(533,719)"/>
<path d="M0 0 C-4.625 4 -4.625 4 -8 4 C-8 3.34 -8 2.68 -8 2 C-3.61016949 -1.20338983 -3.61016949 -1.20338983 0 0 Z " fill="#104BED" transform="translate(542,717)"/>
<path d="M0 0 C0 3 0 3 -1.25 4.75 C-1.8275 5.1625 -2.405 5.575 -3 6 C-4.32 5.67 -5.64 5.34 -7 5 C-4.69 3.35 -2.38 1.7 0 0 Z " fill="#0B39E9" transform="translate(645,657)"/>
<path d="M0 0 C-0.66 0 -1.32 0 -2 0 C-2.66 1.32 -3.32 2.64 -4 4 C-5.32 4 -6.64 4 -8 4 C-8 3.34 -8 2.68 -8 2 C-3.61016949 -1.20338983 -3.61016949 -1.20338983 0 0 Z " fill="#0B44F0" transform="translate(676,543)"/>
<path d="M0 0 C0.99 0.33 1.98 0.66 3 1 C1 4 1 4 -0.9453125 4.51171875 C-1.66460938 4.56972656 -2.38390625 4.62773437 -3.125 4.6875 C-5.043125 4.8421875 -5.043125 4.8421875 -7 5 C-4.66785852 3.79371992 -2.50357861 2.8345262 0 2 C0 1.34 0 0.68 0 0 Z " fill="#0C41EF" transform="translate(542,486)"/>
<path d="M0 0 C0.99 0.33 1.98 0.66 3 1 C2.34 1 1.68 1 1 1 C1 1.66 1 2.32 1 3 C-2 5 -2 5 -4.1875 4.625 C-4.785625 4.41875 -5.38375 4.2125 -6 4 C-3.1875 1.9375 -3.1875 1.9375 0 0 Z " fill="#0836FA" transform="translate(692,404)"/>
<path d="M0 0 C0.33 0.99 0.66 1.98 1 3 C-0.8125 4.5625 -0.8125 4.5625 -3 6 C-3.99 5.67 -4.98 5.34 -6 5 C-4.06745228 2.9754262 -2.36841312 1.57894208 0 0 Z " fill="#0F41EA" transform="translate(686,634)"/>
<path d="M0 0 C0.66 0.33 1.32 0.66 2 1 C1.34 2.32 0.68 3.64 0 5 C-1.98 5 -3.96 5 -6 5 C-4.06745228 2.9754262 -2.36841312 1.57894208 0 0 Z " fill="#0D39EB" transform="translate(707,622)"/>
<path d="M0 0 C-0.33 0.99 -0.66 1.98 -1 3 C-2.32 3 -3.64 3 -5 3 C-5 3.66 -5 4.32 -5 5 C-5.99 4.67 -6.98 4.34 -8 4 C-3.375 0 -3.375 0 0 0 Z " fill="#0747CA" transform="translate(658,424)"/>
<path d="M0 0 C0.598125 0.20625 1.19625 0.4125 1.8125 0.625 C1.4825 1.285 1.1525 1.945 0.8125 2.625 C-1.5015622 3.35575648 -3.83578869 4.02638258 -6.1875 4.625 C-5.03076352 1.15479057 -3.91311293 -0.67081936 0 0 Z " fill="#0935D3" transform="translate(666.1875,419.375)"/>
</svg>
